<svg width="312" height="55" viewBox="0 0 312 55" fill="none" xmlns="http://www.w3.org/2000/svg">
<path d="M15.408 38.592L12.096 48.312H16.416C17.136 48.312 17.496 48.672 17.496 49.392V52.92C17.496 53.64 17.136 54 16.416 54H1.08C0.36 54 0 53.64 0 52.92V49.392C0 48.672 0.36 48.312 1.08 48.312H5.328L19.728 6.12C20.016 5.448 20.496 5.112 21.168 5.112H28.152C28.824 5.112 29.304 5.448 29.592 6.12L44.136 48.312H49.032C49.752 48.312 50.112 48.672 50.112 49.392V52.92C50.112 53.64 49.752 54 49.032 54H30.96C30.24 54 29.88 53.64 29.88 52.92V49.392C29.88 48.672 30.24 48.312 30.96 48.312H35.424L32.04 38.592H15.408ZM23.688 12.024L16.848 33.192H30.456L23.688 12.024ZM56.5408 48.312V6.264H52.6528C51.9328 6.264 51.5728 5.904 51.5728 5.184V1.368C51.5728 0.647997 51.9328 0.287996 52.6528 0.287996H63.5248C64.2448 0.287996 64.6048 0.647997 64.6048 1.368V23.76C65.7568 21.84 67.2928 20.328 69.2128 19.224C71.1808 18.12 73.2928 17.568 75.5488 17.568C79.9648 17.568 83.4208 19.032 85.9168 21.96C88.4128 24.888 89.6608 29.472 89.6608 35.712C89.6608 41.904 88.2208 46.656 85.3408 49.968C82.5088 53.232 78.7648 54.864 74.1088 54.864C71.4688 54.864 69.1648 54.408 67.1968 53.496C65.2768 52.536 63.8848 51.36 63.0208 49.968L62.5888 52.92C62.5408 53.64 62.1808 54 61.5088 54H52.7248C52.0048 54 51.6448 53.64 51.6448 52.92V49.392C51.6448 48.672 52.0048 48.312 52.7248 48.312H56.5408ZM64.6048 32.256V45C65.1808 45.864 66.2848 46.704 67.9168 47.52C69.5968 48.336 71.2288 48.744 72.8128 48.744C78.6208 48.744 81.5248 44.64 81.5248 36.432C81.5248 30.48 80.1808 26.736 77.4928 25.2C76.3408 24.528 74.7568 24.192 72.7408 24.192C70.7248 24.192 68.8528 24.936 67.1248 26.424C65.4448 27.864 64.6048 29.808 64.6048 32.256ZM94.6997 36.72C94.6997 33.12 95.2517 30 96.3557 27.36C97.4597 24.72 98.8997 22.728 100.676 21.384C104.084 18.84 107.78 17.568 111.764 17.568C114.692 17.568 117.164 18.024 119.18 18.936C121.196 19.848 122.756 20.904 123.86 22.104C125.012 23.304 125.972 25.032 126.74 27.288C127.556 29.544 127.964 32.184 127.964 35.208C127.964 41.64 126.332 46.536 123.068 49.896C119.852 53.208 115.724 54.864 110.684 54.864C105.644 54.864 101.708 53.352 98.8757 50.328C96.0917 47.256 94.6997 42.72 94.6997 36.72ZM111.26 48.96C114.14 48.96 116.228 47.904 117.524 45.792C118.868 43.632 119.54 40.44 119.54 36.216C119.54 31.992 118.868 28.824 117.524 26.712C116.228 24.552 114.092 23.472 111.116 23.472C105.596 23.472 102.836 27.36 102.836 35.136C102.836 44.352 105.644 48.96 111.26 48.96ZM167.22 48.312H170.388C171.108 48.312 171.468 48.672 171.468 49.392V52.92C171.468 53.64 171.108 54 170.388 54H162.324C161.748 54 161.388 53.64 161.244 52.92L160.596 48.888C157.524 52.872 153.492 54.864 148.5 54.864C140.724 54.864 136.836 50.784 136.836 42.624V24.264H133.02C132.3 24.264 131.94 23.904 131.94 23.184V19.44C131.94 18.72 132.3 18.36 133.02 18.36H143.82C144.54 18.36 144.9 18.72 144.9 19.44V40.464C144.9 43.344 145.26 45.408 145.98 46.656C146.748 47.856 148.332 48.456 150.732 48.456C153.18 48.456 155.196 47.736 156.78 46.296C158.364 44.856 159.156 43.224 159.156 41.4V24.264H154.62C153.9 24.264 153.54 23.904 153.54 23.184V19.44C153.54 18.72 153.9 18.36 154.62 18.36H166.14C166.86 18.36 167.22 18.72 167.22 19.44V48.312ZM187.93 24.264V42.408C187.93 44.664 188.218 46.296 188.794 47.304C189.37 48.312 190.45 48.816 192.034 48.816C193.618 48.816 195.154 48.48 196.642 47.808C197.17 47.616 197.554 47.808 197.794 48.384L199.09 51.696C199.138 51.84 199.162 52.056 199.162 52.344C199.162 52.584 198.922 52.848 198.442 53.136C196.138 54.288 193.402 54.864 190.234 54.864C185.962 54.864 183.154 53.76 181.81 51.552C180.85 50.112 180.298 48.72 180.154 47.376C179.962 45.552 179.866 43.632 179.866 41.616V24.264H175.762C175.042 24.264 174.682 23.904 174.682 23.184V19.44C174.682 18.72 175.042 18.36 175.762 18.36H179.866V8.64C179.866 7.92 180.226 7.56 180.946 7.56H186.85C187.57 7.56 187.93 7.92 187.93 8.64V18.36H195.202C195.922 18.36 196.282 18.72 196.282 19.44V23.184C196.282 23.904 195.922 24.264 195.202 24.264H187.93ZM216.394 23.184V19.44C216.394 18.72 216.754 18.36 217.474 18.36H227.338C227.962 18.36 228.322 18.72 228.418 19.44L228.994 23.616C231.49 19.584 235.234 17.568 240.226 17.568C245.218 17.568 248.506 19.68 250.09 23.904C252.682 19.68 256.45 17.568 261.394 17.568C268.834 17.568 272.554 21.648 272.554 29.808V48.312H276.658C277.378 48.312 277.738 48.672 277.738 49.392V52.92C277.738 53.64 277.378 54 276.658 54H260.818C260.098 54 259.738 53.64 259.738 52.92V49.392C259.738 48.672 260.098 48.312 260.818 48.312H264.49V33.408C264.49 30.384 264.106 28.176 263.338 26.784C262.57 25.392 261.01 24.696 258.658 24.696C256.354 24.696 254.506 25.32 253.114 26.568C251.722 27.816 251.026 29.28 251.026 30.96V48.312H254.482C255.202 48.312 255.562 48.672 255.562 49.392V52.92C255.562 53.64 255.202 54 254.482 54H239.722C239.002 54 238.642 53.64 238.642 52.92V49.392C238.642 48.672 239.002 48.312 239.722 48.312H242.962V33.408C242.962 30.384 242.578 28.176 241.81 26.784C241.042 25.392 239.458 24.696 237.058 24.696C234.706 24.696 232.834 25.416 231.442 26.856C230.098 28.248 229.426 29.88 229.426 31.752V48.312H233.818C234.538 48.312 234.898 48.672 234.898 49.392V52.92C234.898 53.64 234.538 54 233.818 54H217.546C216.826 54 216.466 53.64 216.466 52.92V49.392C216.466 48.672 216.826 48.312 217.546 48.312H221.362V24.264H217.474C216.754 24.264 216.394 23.904 216.394 23.184ZM297.939 54.864C292.227 54.864 288.027 53.208 285.339 49.896C282.699 46.536 281.379 42.12 281.379 36.648C281.379 31.128 282.795 26.568 285.627 22.968C288.459 19.368 292.539 17.568 297.867 17.568C300.507 17.568 302.763 18.072 304.635 19.08C306.555 20.04 308.019 21.36 309.027 23.04C310.947 26.304 311.907 30.072 311.907 34.344C311.907 36.36 311.811 37.464 311.619 37.656C311.427 37.848 311.067 37.944 310.539 37.944H289.371C289.611 41.4 290.451 44.088 291.891 46.008C293.379 47.88 295.923 48.816 299.523 48.816C302.163 48.816 304.875 48.192 307.659 46.944C308.331 46.608 308.811 46.8 309.099 47.52L310.467 50.832C310.707 51.408 310.491 51.888 309.819 52.272C306.651 54 302.691 54.864 297.939 54.864ZM289.371 32.616H304.347C304.443 26.616 302.091 23.616 297.291 23.616C294.459 23.616 292.443 24.528 291.243 26.352C290.091 28.128 289.467 30.216 289.371 32.616Z" fill="#F55800"/>
</svg>
